<svg width="202" height="262" viewBox="0 0 202 262" fill="none" xmlns="http://www.w3.org/2000/svg">
<circle cx="5" cy="5" r="5" fill="#F55701"/>
<circle cx="101" cy="5" r="5" fill="#F55701"/>
<circle cx="37" cy="5" r="5" fill="#F55701"/>
<circle cx="69" cy="5" r="5" fill="#F55701"/>
<circle cx="101" cy="5" r="5" fill="#F55701"/>
<circle cx="197" cy="5" r="5" fill="#F55701"/>
<circle cx="133" cy="5" r="5" fill="#F55701"/>
<circle cx="165" cy="5" r="5" fill="#F55701"/>
<circle cx="5" cy="117" r="5" fill="#F55701"/>
<circle cx="101" cy="117" r="5" fill="#F55701"/>
<circle cx="37" cy="117" r="5" fill="#F55701"/>
<circle cx="69" cy="117" r="5" fill="#F55701"/>
<circle cx="101" cy="117" r="5" fill="#F55701"/>
<circle cx="197" cy="117" r="5" fill="#F55701"/>
<circle cx="133" cy="117" r="5" fill="#F55701"/>
<circle cx="165" cy="117" r="5" fill="#F55701"/>
<circle cx="5" cy="33" r="5" fill="#F55701"/>
<circle cx="101" cy="33" r="5" fill="#F55701"/>
<circle cx="37" cy="33" r="5" fill="#F55701"/>
<circle cx="69" cy="33" r="5" fill="#F55701"/>
<circle cx="101" cy="33" r="5" fill="#F55701"/>
<circle cx="197" cy="33" r="5" fill="#F55701"/>
<circle cx="133" cy="33" r="5" fill="#F55701"/>
<circle cx="165" cy="33" r="5" fill="#F55701"/>
<circle cx="5" cy="61" r="5" fill="#F55701"/>
<circle cx="101" cy="61" r="5" fill="#F55701"/>
<circle cx="37" cy="61" r="5" fill="#F55701"/>
<circle cx="69" cy="61" r="5" fill="#F55701"/>
<circle cx="101" cy="61" r="5" fill="#F55701"/>
<circle cx="197" cy="61" r="5" fill="#F55701"/>
<circle cx="133" cy="61" r="5" fill="#F55701"/>
<circle cx="165" cy="61" r="5" fill="#F55701"/>
<circle cx="5" cy="89" r="5" fill="#F55701"/>
<circle cx="101" cy="89" r="5" fill="#F55701"/>
<circle cx="37" cy="89" r="5" fill="#F55701"/>
<circle cx="69" cy="89" r="5" fill="#F55701"/>
<circle cx="101" cy="89" r="5" fill="#F55701"/>
<circle cx="197" cy="89" r="5" fill="#F55701"/>
<circle cx="133" cy="89" r="5" fill="#F55701"/>
<circle cx="165" cy="89" r="5" fill="#F55701"/>
<circle cx="5" cy="145" r="5" fill="white"/>
<circle cx="101" cy="145" r="5" fill="white"/>
<circle cx="37" cy="145" r="5" fill="white"/>
<circle cx="69" cy="145" r="5" fill="white"/>
<circle cx="101" cy="145" r="5" fill="white"/>
<circle cx="197" cy="145" r="5" fill="white"/>
<circle cx="133" cy="145" r="5" fill="white"/>
<circle cx="165" cy="145" r="5" fill="white"/>
<circle cx="5" cy="257" r="5" fill="white"/>
<circle cx="101" cy="257" r="5" fill="white"/>
<circle cx="37" cy="257" r="5" fill="white"/>
<circle cx="69" cy="257" r="5" fill="white"/>
<circle cx="101" cy="257" r="5" fill="white"/>
<circle cx="197" cy="257" r="5" fill="white"/>
<circle cx="133" cy="257" r="5" fill="white"/>
<circle cx="165" cy="257" r="5" fill="white"/>
<circle cx="5" cy="173" r="5" fill="white"/>
<circle cx="101" cy="173" r="5" fill="white"/>
<circle cx="37" cy="173" r="5" fill="white"/>
<circle cx="69" cy="173" r="5" fill="white"/>
<circle cx="101" cy="173" r="5" fill="white"/>
<circle cx="197" cy="173" r="5" fill="white"/>
<circle cx="133" cy="173" r="5" fill="white"/>
<circle cx="165" cy="173" r="5" fill="white"/>
<circle cx="5" cy="201" r="5" fill="white"/>
<circle cx="101" cy="201" r="5" fill="white"/>
<circle cx="37" cy="201" r="5" fill="white"/>
<circle cx="69" cy="201" r="5" fill="white"/>
<circle cx="101" cy="201" r="5" fill="white"/>
<circle cx="197" cy="201" r="5" fill="white"/>
<circle cx="133" cy="201" r="5" fill="white"/>
<circle cx="165" cy="201" r="5" fill="white"/>
<circle cx="5" cy="229" r="5" fill="white"/>
<circle cx="101" cy="229" r="5" fill="white"/>
<circle cx="37" cy="229" r="5" fill="white"/>
<circle cx="69" cy="229" r="5" fill="white"/>
<circle cx="101" cy="229" r="5" fill="white"/>
<circle cx="197" cy="229" r="5" fill="white"/>
<circle cx="133" cy="229" r="5" fill="white"/>
<circle cx="165" cy="229" r="5" fill="white"/>
</svg>
